<?xml version="1.0" encoding="utf-8"?>
<!-- Generator: Adobe Illustrator 16.0.0, SVG Export Plug-In . SVG Version: 6.00 Build 0)  -->
<!DOCTYPE svg PUBLIC "-//W3C//DTD SVG 1.1//EN" "http://www.w3.org/Graphics/SVG/1.1/DTD/svg11.dtd">
<svg version="1.1" id="Layer_1" xmlns="http://www.w3.org/2000/svg" xmlns:xlink="http://www.w3.org/1999/xlink" x="0px" y="0px"
	 width="336px" height="160px" viewBox="0 0 336 160" enable-background="new 0 0 336 160" xml:space="preserve">
<text transform="matrix(1 0 0 1 182.3472 216.5703)" display="none" font-family="'AGaramondPro-Regular'" font-size="72">cutils</text>
<g>
	<rect fill="#FFDD00" width="336" height="160"/>
	<path fill="#FFFFFF" d="M77.352,73.447c1.152,1.008,2.16,3.312,2.16,5.762c0,2.592-1.441,5.328-3.168,5.328
		c-0.723,0-1.441-0.289-2.018-1.008c-3.168-3.889-8.496-7.633-14.4-7.633c-10.082,0-19.875,7.92-19.875,23.186
		c0,11.232,7.777,24.627,23.188,24.627c8.352,0,12.672-3.746,15.984-8.641c1.152-0.289,2.449,0.719,2.594,2.016
		c-4.898,10.656-15.699,14.689-24.051,14.689c-7.633,0-14.691-2.447-19.73-7.346c-5.039-4.895-8.352-11.953-8.352-21.312
		C29.684,87.561,40.629,71,64.533,71C67.846,71,73.461,71.721,77.352,73.447z M103.629,108.588c0,9.936,2.445,16.561,13.391,16.561
		c3.891,0,8.498-1.584,11.666-4.32c1.873-1.729,2.881-3.889,2.881-8.354V88.857c0-9.361-1.008-9.648-5.328-11.377l-1.873-0.721
		c-1.008-0.574-1.008-2.592,0.143-3.168c5.762-0.145,13.684-1.152,16.852-2.592c0.719,0.143,1.152,0.432,1.297,1.008
		c-0.289,2.736-0.434,7.201-0.434,12.529v24.195c0,11.375,0.434,15.695,4.465,15.695c1.727,0,3.6-0.287,5.617-0.719
		c0.863,0.719,1.008,3.6-0.145,4.176c-5.617,1.152-13.969,2.592-18.867,5.328c-0.719,0-1.439-0.432-1.727-1.008v-5.904
		c0-1.295-0.434-2.018-1.297-2.018c-4.32,2.738-11.377,7.49-19.873,7.49c-12.674,0-17.426-6.338-17.426-18.002V89.721
		c0-9.072,0-10.367-4.32-12.24l-1.729-0.721c-0.863-0.719-0.719-2.734,0.289-3.168c6.625-0.145,12.24-1.441,15.408-2.592
		c0.865,0.143,1.295,0.432,1.439,1.008c-0.287,2.447-0.43,5.473-0.43,12.529V108.588z M175.453,79.064
		c-2.449,0-2.592,0.432-2.592,3.457v26.93c0,8.352,1.008,15.984,10.514,15.984c1.439,0,2.734-0.287,3.887-0.719
		c1.297-0.434,3.168-2.016,3.602-2.016c1.152,0,1.727,1.582,1.438,2.447c-2.59,3.025-7.773,6.625-15.119,6.625
		c-12.385,0-14.979-6.912-14.979-15.553V83.24c0-3.887-0.143-4.176-3.023-4.176h-4.031c-0.865-0.576-1.008-2.16-0.434-3.023
		c4.176-1.297,7.777-3.168,9.219-4.465c1.871-1.729,4.607-5.617,6.047-8.496c0.721-0.289,2.449-0.289,3.023,0.719v6.48
		c0,2.594,0.145,2.736,2.594,2.736h15.984c1.73,1.297,1.441,5.186,0.145,6.049H175.453z M207.363,88.424
		c0-5.615,0-6.336-3.891-8.928l-1.297-0.863c-0.574-0.576-0.574-2.16,0.145-2.592c3.312-1.152,11.523-4.898,14.836-7.059
		c0.719,0,1.293,0.289,1.438,0.865c-0.285,5.041-0.574,11.953-0.574,17.857v25.922c0,10.369,0.289,11.809,5.473,12.529l3.023,0.432
		c1.008,0.721,0.719,3.168-0.289,3.602c-4.32-0.289-8.496-0.434-13.535-0.434c-5.188,0-9.508,0.145-13.539,0.434
		c-1.008-0.434-1.297-2.881-0.289-3.602l3.027-0.432c5.328-0.721,5.473-2.16,5.473-12.529V88.424z M219.316,47.381
		c0,5.186-3.602,7.488-7.633,7.488c-4.465,0-7.348-3.312-7.348-7.199c0-4.754,3.457-7.777,7.777-7.777S219.316,43.35,219.316,47.381
		z M253.254,113.627c0,10.369,0.285,11.809,5.473,12.529l3.457,0.432c1.008,0.721,0.719,3.168-0.289,3.602
		c-4.754-0.289-8.93-0.434-13.969-0.434c-5.188,0-9.508,0.145-13.828,0.434c-1.008-0.434-1.293-2.881-0.285-3.602l3.312-0.432
		c5.328-0.721,5.473-2.16,5.473-12.529V48.533c0-8.496-0.145-9.361-4.465-11.953l-1.441-0.863c-0.719-0.434-0.719-2.449,0-2.881
		c3.602-1.152,10.367-3.312,15.555-6.049c0.574,0,1.152,0.289,1.438,0.865c-0.145,4.32-0.43,11.52-0.43,17.857V113.627z
		 M303.582,73.592c1.297,3.168,2.305,7.777,2.305,11.664c-0.578,1.008-2.738,1.297-3.457,0.434
		c-2.449-6.336-6.77-10.514-12.672-10.514c-5.617,0-9.219,3.6-9.219,8.785c0,5.904,6.051,9.072,11.09,11.953
		c7.633,4.32,14.688,9.217,14.688,19.441c0,10.945-10.078,16.418-20.738,16.418c-6.766,0-11.809-1.439-15.406-4.322
		c-1.152-2.734-2.016-9.791-1.73-14.543c0.723-0.865,2.594-1.008,3.312-0.145c2.449,7.92,7.059,14.832,15.266,14.832
		c5.184,0,9.648-3.023,9.648-9.215c0-6.625-5.758-10.227-11.09-13.25c-8.352-4.754-14.254-9.793-14.254-17.715
		c0-10.512,8.641-16.416,19.586-16.416C296.957,71,302.285,72.439,303.582,73.592z"/>
</g>
</svg>
